<svg xmlns="http://www.w3.org/2000/svg" viewBox="0 0 943.244 943.244" width="1024" height="1024">
<defs><linearGradient id="_未命名的渐变_165" x1="526.432" y1="507.21" x2="60.715" y2="41.493" gradientUnits="userSpaceOnUse"><stop offset="0" stop-color="#e050a8"/><stop offset=".44" stop-color="#ab47c8"/><stop offset=".807" stop-color="#8642df"/><stop offset="1" stop-color="#7840e8"/></linearGradient></defs>

<g transform="translate(103.757 177.887)">
<path d="M.939,329.422c-1.544-30.482-.761-65.075-.581-95.873.372-63.935-1.382-126.695,44.637-176.158C76.188,23.864,120.166.548,168.005.221c94.789-.649,174.585.375,269.397,0,11.835,1.004,15.786,5.201,13.124,15.705-1.473,5.813-7.426,21.441-10.135,26.865-6.332,12.679-26.164,31.561-39.031,38.969-19.614,11.293-42.661,10.466-64.752,11.254-49.605,1.768-99.7.041-149.087.91-18.751.33-36.165-.572-52.856,9.183-12.41,7.253-31.408,29.852-33.623,44.335-.374,2.444-3.334,15.438-.021,15.438h227.459c8.407.587,12.427,1.061,6.5,9.542-1.322,1.891-6.457,6.035-7.995,7.962-14.549,18.228-27.198,40.374-36.049,61.951-.971,2.368-1.013,5.866-2.143,7.857-.305.538-5.357,4.952-5.83,5.17-1.123.517-15.581,1.438-18.44,1.56-81.451,3.301-168.507-18.432-228.939,52.061-8.7,10.806-15.716,22.589-24.058,33.942-1.765,2.402-5.931,7.089-8.453,3.359-.988-1.462-1.978-13.817-2.133-16.862ZM655.655,44.222c-33.302-26.088-76.09-41.764-119.134-43.383-5.837-.22-31.823-1.392-35.31.217-2.417,1.115-5.758,12.428-6.793,15.763-6.144,19.791-11.06,34.02-21.254,51.746-2.838,4.936-8.589,11.466-10.655,16.344-2.499,5.901,2.233,6.628,6.931,7.01,20.167,1.64,42.606-1.102,63.098-.067,124.362,7.825,149.396,179.8,36.43,226.52-28.962,11.473-61.222,5.899-91.475,8.523-2.524.219-7.93.925-9.615,2.385-.449.389-4.923,9.311-5.415,10.585-2.957,7.665-4.648,17.936-7.205,25.795-4.254,13.076-13.418,34.197-15.099,46.987-.848,6.456,5.086,6.769,10.334,7.216,26.523,2.256,65.996,1.307,92.974.006,189.601-16.131,261.374-258.147,112.185-375.648ZM477.72,258.12c25.911-6.981,55.439,6.208,77.156-14.844,8.074-7.826,12.489-21.331,13.351-32.554.557-7.247-4.192-22.66-8.54-28.562-15.553-21.111-44.662-19.677-68.197-18.268-159.771,7.445-165.26,181.377-210.527,297.472-10.162,28.55-17.928,57.983-27.261,86.739-3.164,9.749-9.978,21.517-9.766,32.329.093,4.736,4.85,4.755,8.666,5.327,17.968,2.69,48.319.917,66.859-.896,25.107-2.455,28.838-31.783,35.04-50.96,21.272-65.761,40.925-132.71,62.522-197.478,11.787-35.35,20.312-67.423,60.696-78.304ZM261.417,327.944c-16.195-2.425-61.35-1.682-77.443-1.105-53.284,1.909-64.669-2.47-111.542,30.035C4.185,406.966-3.435,491.533,1.361,570.211c.372,11.964,9.757,15.68,22.216,16.64,18.014,1.388,36.757.157,54.952-.922,5.574-.331,14.388-.144,15.394-6.606,6.881-44.742-11.332-106.476,26.339-141.162,28.601-26.322,71.311-15.544,106.255-18.245,14.618-1.13,13.386-7.921,17.408-19.592,6.653-19.31,12.701-38.742,18.753-58.247,1.474-4.752,7.689-12.793-1.26-14.133Z" fill="url(#_未命名的渐变_165)"/>
</g>
</svg>